<svg width="20" height="18" viewBox="0 0 20 18" fill="none" xmlns="http://www.w3.org/2000/svg">
<path d="M12 0C9.87827 0 7.84344 0.842855 6.34315 2.34315C4.84285 3.84344 4 5.87827 4 8C4 10.1217 4.84285 12.1566 6.34315 13.6569C7.84344 15.1571 9.87827 16 12 16C14.1217 16 16.1566 15.1571 17.6569 13.6569C19.1571 12.1566 20 10.1217 20 8C20 5.87827 19.1571 3.84344 17.6569 2.34315C16.1566 0.842855 14.1217 0 12 0ZM2.93 3.82C1.08 5.34 0 7.61 0 10C0 12.1217 0.842855 14.1566 2.34315 15.6569C3.84344 17.1571 5.87827 18 8 18C8.64 18 9.27 17.92 9.88 17.77C8.12 17.38 6.5 16.5 5.17 15.29C3.22 14.25 2 12.21 2 10C2 9.7 2.03 9.41 2.07 9.11C2.03 8.74 2 8.37 2 8C2 6.56 2.32 5.13 2.93 3.82ZM16.09 4.08L17.5 5.5L11 12L7.21 8.21L8.63 6.79L11 9.17" fill="#01E4DB"/>
</svg>
